<svg xmlns="http://www.w3.org/2000/svg" width="22" height="20" viewBox="0 0 22 20">
  <g id="Group_2" data-name="Group 2" transform="translate(-1386 -385)">
    <g id="Group_1" data-name="Group 1" transform="translate(2540.163 277.64)">
      <path id="Path_1" data-name="Path 1" d="M-1132.459,124.764l-9.075-15.721a1.369,1.369,0,0,0-2.369,0l-9.075,15.721a1.369,1.369,0,0,0,1.184,2.053h18.15A1.369,1.369,0,0,0-1132.459,124.764Zm-10.334-9.968a.92.92,0,0,1,.918.944l-.152,5.293a.768.768,0,0,1-.77.747.771.771,0,0,1-.77-.747l-.148-5.293A.922.922,0,0,1-1142.793,114.8Zm-.011,9.573a.956.956,0,0,1-.955-.955.956.956,0,0,1,.955-.955.956.956,0,0,1,.956.955A.956.956,0,0,1-1142.8,124.37Z" fill="#ff3b00"/>
    </g>
    <rect id="Rectangle_1" data-name="Rectangle 1" width="22" height="20" transform="translate(1386 385)" fill="none"/>
  </g>
</svg>
