<svg width="11" height="16" viewBox="0 0 11 16" fill="none" xmlns="http://www.w3.org/2000/svg">
<path fill-rule="evenodd" clip-rule="evenodd" d="M5.5 1C4.11929 1 3 2.11929 3 3.5C3 4.88071 4.11929 6 5.5 6C6.88071 6 8 4.88071 8 3.5C8 2.11929 6.88071 1 5.5 1ZM2 3.5C2 1.567 3.567 0 5.5 0C7.433 0 9 1.567 9 3.5C9 5.433 7.433 7 5.5 7C3.567 7 2 5.433 2 3.5ZM0.867464 8.93908C1.42721 8.34201 2.19356 8 3 8H8C8.80644 8 9.57279 8.34201 10.1325 8.93908C10.6913 9.53505 11 10.3369 11 11.1667V15.5C11 15.7761 10.7761 16 10.5 16C10.2239 16 10 15.7761 10 15.5V11.1667C10 10.582 9.78195 10.0272 9.403 9.62302C9.02507 9.21989 8.51964 9 8 9H3C2.48036 9 1.97493 9.21989 1.597 9.62302C1.21805 10.0272 1 10.582 1 11.1667V15.5C1 15.7761 0.776142 16 0.5 16C0.223858 16 0 15.7761 0 15.5V11.1667C0 10.3369 0.308739 9.53505 0.867464 8.93908Z" fill="white"/>
</svg>
